<?xml version="1.0" encoding="UTF-8"?>
<svg id="az-circle" data-name="az-circle" xmlns="http://www.w3.org/2000/svg" viewBox="0 0 740 740">
    <circle cx="370" cy="370" r="370"/>
    <path style="fill: #fff" d="m134.35,368.23c0-125.2,63.05-177.45,136.46-177.45s101.33,49.09,101.33,111.69v135.11h-40.53l-5.4-21.62h-1.8c-10.81,16.21-27.02,27.02-51.79,27.02-33.33,0-57.2-30.18-57.2-64.85,0-49.54,44.14-68.91,109.89-77.46v-7.21c0-29.72-18.92-56.75-56.3-56.75s-82.42,34.23-82.42,133.31c0,92.78,46.39,133.31,92.33,133.31,26.57,0,40.98-6.31,58.1-16.21l21.62,37.83c-26.12,14.41-49.99,24.32-82.87,24.32-72.51,0-141.42-56.3-141.42-181.05Zm182.85,13.51v-35.13c-34.68,5.4-45.94,12.61-45.94,29.72,0,10.36,6.76,17.11,18.92,17.11s19.37-5.4,27.02-11.71Z"/>
    <path style="fill: #fff" d="m441.33,511.8h15.43c31.28,0,38.37-4.17,38.37-25.86s-1.25-40.87-1.25-65.06c0-33.37,12.93-45.04,43.38-50.05v-1.67c-30.45-5-43.38-16.68-43.38-50.05,0-24.19,1.25-43.79,1.25-65.06s-7.09-25.86-38.37-25.86h-15.43v-37.54h34.62c54.22,0,77.99,15.01,77.99,60.89,0,29.2-4.59,41.71-4.59,67.57,0,14.18,12.51,29.2,56.3,30.03v41.71c-43.79.83-56.3,15.85-56.3,30.03,0,25.86,4.59,38.37,4.59,67.57,0,45.88-23.77,60.89-77.99,60.89h-34.62v-37.54Z"/>
</svg>