<?xml version="1.0" encoding="UTF-8"?>
<svg xmlns="http://www.w3.org/2000/svg" viewBox="0 0 1024 731">
  <path style="fill:#212529;" d="m1001.77,147H22.23c-12.28,0-22.23-9.95-22.23-22.23V22.23C0,9.95,9.95,0,22.23,0h979.54c12.28,0,22.23,9.95,22.23,22.23v102.54c0,12.28-9.95,22.23-22.23,22.23Zm22.23,271.77v-102.54c0-12.28-9.95-22.23-22.23-22.23H22.23c-12.28,0-22.23,9.95-22.23,22.23v102.54c0,12.28,9.95,22.23,22.23,22.23h979.54c12.28,0,22.23-9.95,22.23-22.23Zm0,290v-102.54c0-12.28-9.95-22.23-22.23-22.23H22.23c-12.28,0-22.23,9.95-22.23,22.23v102.54c0,12.28,9.95,22.23,22.23,22.23h979.54c12.28,0,22.23-9.95,22.23-22.23Z"/>
</svg>