<?xml version="1.0" encoding="UTF-8"?>
<svg xmlns="http://www.w3.org/2000/svg" viewBox="0 0 1024 1024">
  <defs>
    <style>
      .cls-1 {
        fill: #fff;
      }
    </style>
  </defs>
  <g id="bg">
    <rect width="1024" height="1024"/>
  </g>
  <g id="_" data-name="@}">
    <g>
      <path class="cls-1" d="m155,509.31c0-189.67,95.52-268.82,206.73-268.82s153.51,74.37,153.51,169.21v204.68h-61.41l-8.19-32.75h-2.73c-16.37,24.56-40.94,40.94-78.46,40.94-50.49,0-86.65-45.71-86.65-98.25,0-75.05,66.86-104.39,166.48-117.35v-10.92c0-45.03-28.66-85.97-85.29-85.97s-124.86,51.85-124.86,201.96c0,140.55,70.27,201.96,139.87,201.96,40.25,0,62.09-9.55,88.01-24.56l32.75,57.31c-39.57,21.83-75.73,36.84-125.54,36.84-109.85,0-214.24-85.29-214.24-274.28Zm277.01,20.47v-53.22c-52.54,8.19-69.59,19.1-69.59,45.03,0,15.69,10.23,25.93,28.66,25.93s29.34-8.19,40.94-17.74Z"/>
      <path class="cls-1" d="m620.06,726.83h23.38c47.39,0,58.13-6.32,58.13-39.17s-1.89-61.92-1.89-98.57c0-50.55,19.59-68.24,65.71-75.82v-2.53c-46.12-7.58-65.71-25.27-65.71-75.82,0-36.65,1.89-66.34,1.89-98.57s-10.74-39.17-58.13-39.17h-23.38v-56.87h52.44c82.14,0,118.15,22.75,118.15,92.25,0,44.23-6.95,63.18-6.95,102.36,0,21.48,18.95,44.23,85.3,45.49v63.18c-66.34,1.26-85.3,24.01-85.3,45.49,0,39.17,6.95,58.13,6.95,102.36,0,69.5-36.01,92.25-118.15,92.25h-52.44v-56.87Z"/>
    </g>
  </g>
</svg>