<?xml version="1.0" standalone="no"?>
<!DOCTYPE svg PUBLIC "-//W3C//DTD SVG 20010904//EN"
 "http://www.w3.org/TR/2001/REC-SVG-20010904/DTD/svg10.dtd">
<svg version="1.0" xmlns="http://www.w3.org/2000/svg"
 width="700.000000pt" height="700.000000pt" viewBox="0 0 700.000000 700.000000"
 preserveAspectRatio="xMidYMid meet">
<metadata>
Created by potrace 1.14, written by Peter Selinger 2001-2017
</metadata>
<g transform="translate(0.000000,700.000000) scale(0.100000,-0.100000)"
fill="#000000" stroke="none">
<path d="M0 3500 l0 -3500 3500 0 3500 0 0 3500 0 3500 -3500 0 -3500 0 0
-3500z m2695 1839 c145 -22 329 -92 425 -163 169 -126 292 -319 350 -549 48
-190 50 -240 50 -1059 l0 -768 -209 0 -209 0 -27 110 c-15 62 -32 110 -39 110
-6 0 -28 -22 -49 -50 -73 -98 -212 -183 -342 -210 -95 -20 -238 -16 -317 9
-88 28 -204 106 -263 178 -55 68 -114 181 -141 273 -14 50 -19 96 -18 200 0
121 3 143 27 213 15 43 43 103 63 134 136 213 436 356 894 428 173 27 154 11
146 119 -8 118 -27 192 -74 280 -141 269 -490 363 -797 216 -286 -138 -471
-457 -542 -937 -24 -166 -24 -564 0 -718 54 -343 160 -584 336 -769 162 -168
341 -252 566 -263 197 -10 339 20 527 109 59 28 109 50 111 47 2 -2 52 -89
111 -193 84 -147 105 -191 94 -198 -49 -34 -273 -134 -373 -167 -164 -54 -288
-74 -465 -74 -367 -1 -677 121 -936 365 -273 259 -438 618 -511 1113 -24 168
-24 626 0 805 63 449 205 786 434 1030 290 308 719 446 1178 379z m2085 11
c363 -32 534 -148 600 -406 27 -104 27 -344 0 -589 -11 -99 -20 -225 -20 -281
0 -88 3 -106 26 -152 31 -62 94 -112 188 -147 81 -30 216 -55 302 -55 l64 0 0
-220 0 -220 -64 0 c-86 0 -220 -24 -303 -55 -96 -36 -155 -82 -187 -146 -23
-47 -26 -65 -26 -153 0 -56 9 -182 20 -281 27 -245 27 -485 0 -589 -53 -208
-176 -322 -403 -376 -114 -27 -287 -40 -529 -40 l-208 0 0 195 0 195 133 0
c261 1 351 27 397 115 l25 49 -5 296 c-8 473 -5 607 13 677 45 171 139 255
340 305 48 12 87 24 87 28 0 4 -39 16 -87 28 -201 50 -295 134 -340 305 -18
70 -21 198 -14 667 4 201 1 297 -7 325 -13 44 -48 83 -98 108 -43 22 -175 37
-321 37 l-123 0 0 195 0 195 213 0 c116 0 264 -5 327 -10z"/>
<path d="M2875 3729 c-145 -32 -188 -45 -251 -75 -108 -51 -150 -121 -142
-235 5 -71 27 -105 89 -137 38 -20 55 -23 124 -19 85 4 129 21 213 80 l42 30
0 184 c0 205 6 190 -75 172z"/>
</g>
</svg>
